<mxfile host="app.diagrams.net" modified="2020-11-18T14:02:22.521Z" agent="5.0 (Windows NT 10.0; Win64; x64) AppleWebKit/537.36 (KHTML, like Gecko) Chrome/86.0.4240.198 Safari/537.36" etag="3qzJ8gJmZVeaEycTeT8z" version="13.9.9" type="github">
  <diagram id="C5RBs43oDa-KdzZeNtuy" name="Page-1">
    <mxGraphModel dx="1187" dy="667" grid="1" gridSize="10" guides="1" tooltips="1" connect="1" arrows="1" fold="1" page="1" pageScale="1" pageWidth="827" pageHeight="1169" math="0" shadow="0">
      <root>
        <mxCell id="WIyWlLk6GJQsqaUBKTNV-0" />
        <mxCell id="WIyWlLk6GJQsqaUBKTNV-1" parent="WIyWlLk6GJQsqaUBKTNV-0" />
        <mxCell id="BZ-8qStrqL4RJiPxQvul-13" style="rounded=0;orthogonalLoop=1;jettySize=auto;html=1;exitX=0.994;exitY=0.022;exitDx=0;exitDy=0;entryX=0;entryY=0.5;entryDx=0;entryDy=0;exitPerimeter=0;endArrow=none;endFill=0;fontSize=14;" edge="1" parent="WIyWlLk6GJQsqaUBKTNV-1" source="BZ-8qStrqL4RJiPxQvul-6" target="BZ-8qStrqL4RJiPxQvul-9">
          <mxGeometry relative="1" as="geometry" />
        </mxCell>
        <mxCell id="BZ-8qStrqL4RJiPxQvul-5" value="总经理" style="swimlane;fontStyle=0;childLayout=stackLayout;horizontal=1;startSize=26;fillColor=none;horizontalStack=0;resizeParent=1;resizeParentMax=0;resizeLast=0;collapsible=1;marginBottom=0;fontSize=14;" vertex="1" parent="WIyWlLk6GJQsqaUBKTNV-1">
          <mxGeometry x="40" y="80" width="140" height="78" as="geometry" />
        </mxCell>
        <mxCell id="BZ-8qStrqL4RJiPxQvul-6" value="员工编号" style="text;strokeColor=none;fillColor=none;align=left;verticalAlign=top;spacingLeft=4;spacingRight=4;overflow=hidden;rotatable=0;points=[[0,0.5],[1,0.5]];portConstraint=eastwest;fontStyle=4;fontSize=14;" vertex="1" parent="BZ-8qStrqL4RJiPxQvul-5">
          <mxGeometry y="26" width="140" height="26" as="geometry" />
        </mxCell>
        <mxCell id="BZ-8qStrqL4RJiPxQvul-7" value="工资" style="text;strokeColor=none;fillColor=none;align=left;verticalAlign=top;spacingLeft=4;spacingRight=4;overflow=hidden;rotatable=0;points=[[0,0.5],[1,0.5]];portConstraint=eastwest;fontSize=14;" vertex="1" parent="BZ-8qStrqL4RJiPxQvul-5">
          <mxGeometry y="52" width="140" height="26" as="geometry" />
        </mxCell>
        <mxCell id="BZ-8qStrqL4RJiPxQvul-34" style="edgeStyle=none;rounded=0;orthogonalLoop=1;jettySize=auto;html=1;exitX=1;exitY=0.5;exitDx=0;exitDy=0;entryX=0;entryY=0.5;entryDx=0;entryDy=0;endArrow=none;endFill=0;fontSize=14;" edge="1" parent="WIyWlLk6GJQsqaUBKTNV-1" source="BZ-8qStrqL4RJiPxQvul-9" target="BZ-8qStrqL4RJiPxQvul-32">
          <mxGeometry relative="1" as="geometry" />
        </mxCell>
        <mxCell id="BZ-8qStrqL4RJiPxQvul-9" value="选择" style="swimlane;fontStyle=0;childLayout=stackLayout;horizontal=1;startSize=26;fillColor=none;horizontalStack=0;resizeParent=1;resizeParentMax=0;resizeLast=0;collapsible=1;marginBottom=0;fontSize=14;" vertex="1" parent="WIyWlLk6GJQsqaUBKTNV-1">
          <mxGeometry x="230" y="80" width="140" height="52" as="geometry" />
        </mxCell>
        <mxCell id="BZ-8qStrqL4RJiPxQvul-31" style="edgeStyle=none;rounded=0;orthogonalLoop=1;jettySize=auto;html=1;exitX=1;exitY=0.5;exitDx=0;exitDy=0;entryX=-0.008;entryY=-0.012;entryDx=0;entryDy=0;entryPerimeter=0;endArrow=none;endFill=0;fontSize=14;" edge="1" parent="WIyWlLk6GJQsqaUBKTNV-1" source="BZ-8qStrqL4RJiPxQvul-16" target="BZ-8qStrqL4RJiPxQvul-22">
          <mxGeometry relative="1" as="geometry" />
        </mxCell>
        <mxCell id="BZ-8qStrqL4RJiPxQvul-16" value="提供" style="swimlane;fontStyle=0;childLayout=stackLayout;horizontal=1;startSize=26;fillColor=none;horizontalStack=0;resizeParent=1;resizeParentMax=0;resizeLast=0;collapsible=1;marginBottom=0;fontSize=14;" vertex="1" parent="WIyWlLk6GJQsqaUBKTNV-1">
          <mxGeometry x="230" y="250" width="140" height="52" as="geometry" />
        </mxCell>
        <mxCell id="BZ-8qStrqL4RJiPxQvul-21" value="商品" style="swimlane;fontStyle=0;childLayout=stackLayout;horizontal=1;startSize=26;fillColor=none;horizontalStack=0;resizeParent=1;resizeParentMax=0;resizeLast=0;collapsible=1;marginBottom=0;fontSize=14;" vertex="1" parent="WIyWlLk6GJQsqaUBKTNV-1">
          <mxGeometry x="420" y="250" width="140" height="104" as="geometry" />
        </mxCell>
        <mxCell id="BZ-8qStrqL4RJiPxQvul-22" value="商品编码" style="text;strokeColor=none;fillColor=none;align=left;verticalAlign=top;spacingLeft=4;spacingRight=4;overflow=hidden;rotatable=0;points=[[0,0.5],[1,0.5]];portConstraint=eastwest;fontStyle=4;fontSize=14;" vertex="1" parent="BZ-8qStrqL4RJiPxQvul-21">
          <mxGeometry y="26" width="140" height="26" as="geometry" />
        </mxCell>
        <mxCell id="BZ-8qStrqL4RJiPxQvul-23" value="商品列表" style="text;strokeColor=none;fillColor=none;align=left;verticalAlign=top;spacingLeft=4;spacingRight=4;overflow=hidden;rotatable=0;points=[[0,0.5],[1,0.5]];portConstraint=eastwest;fontSize=14;" vertex="1" parent="BZ-8qStrqL4RJiPxQvul-21">
          <mxGeometry y="52" width="140" height="26" as="geometry" />
        </mxCell>
        <mxCell id="BZ-8qStrqL4RJiPxQvul-66" value="商品列表" style="text;strokeColor=none;fillColor=none;align=left;verticalAlign=top;spacingLeft=4;spacingRight=4;overflow=hidden;rotatable=0;points=[[0,0.5],[1,0.5]];portConstraint=eastwest;fontSize=14;" vertex="1" parent="BZ-8qStrqL4RJiPxQvul-21">
          <mxGeometry y="78" width="140" height="26" as="geometry" />
        </mxCell>
        <mxCell id="BZ-8qStrqL4RJiPxQvul-30" style="edgeStyle=none;rounded=0;orthogonalLoop=1;jettySize=auto;html=1;exitX=1;exitY=0.5;exitDx=0;exitDy=0;entryX=0.008;entryY=-0.012;entryDx=0;entryDy=0;entryPerimeter=0;endArrow=none;endFill=0;fontSize=14;" edge="1" parent="WIyWlLk6GJQsqaUBKTNV-1" source="BZ-8qStrqL4RJiPxQvul-26">
          <mxGeometry relative="1" as="geometry">
            <mxPoint x="231.1199999999999" y="275.688" as="targetPoint" />
          </mxGeometry>
        </mxCell>
        <mxCell id="BZ-8qStrqL4RJiPxQvul-26" value="供应商" style="swimlane;fontStyle=0;childLayout=stackLayout;horizontal=1;startSize=26;fillColor=none;horizontalStack=0;resizeParent=1;resizeParentMax=0;resizeLast=0;collapsible=1;marginBottom=0;fontSize=14;" vertex="1" parent="WIyWlLk6GJQsqaUBKTNV-1">
          <mxGeometry x="40" y="250" width="140" height="52" as="geometry" />
        </mxCell>
        <mxCell id="BZ-8qStrqL4RJiPxQvul-27" value="供应商编码" style="text;strokeColor=none;fillColor=none;align=left;verticalAlign=top;spacingLeft=4;spacingRight=4;overflow=hidden;rotatable=0;points=[[0,0.5],[1,0.5]];portConstraint=eastwest;fontStyle=4;fontSize=14;" vertex="1" parent="BZ-8qStrqL4RJiPxQvul-26">
          <mxGeometry y="26" width="140" height="26" as="geometry" />
        </mxCell>
        <mxCell id="BZ-8qStrqL4RJiPxQvul-32" value="供应商" style="swimlane;fontStyle=0;childLayout=stackLayout;horizontal=1;startSize=26;fillColor=none;horizontalStack=0;resizeParent=1;resizeParentMax=0;resizeLast=0;collapsible=1;marginBottom=0;fontSize=14;" vertex="1" parent="WIyWlLk6GJQsqaUBKTNV-1">
          <mxGeometry x="414" y="80" width="140" height="52" as="geometry" />
        </mxCell>
        <mxCell id="BZ-8qStrqL4RJiPxQvul-33" value="供应商编码" style="text;strokeColor=none;fillColor=none;align=left;verticalAlign=top;spacingLeft=4;spacingRight=4;overflow=hidden;rotatable=0;points=[[0,0.5],[1,0.5]];portConstraint=eastwest;fontStyle=4;fontSize=14;" vertex="1" parent="BZ-8qStrqL4RJiPxQvul-32">
          <mxGeometry y="26" width="140" height="26" as="geometry" />
        </mxCell>
        <mxCell id="BZ-8qStrqL4RJiPxQvul-35" value="6.1 选择" style="text;html=1;strokeColor=none;fillColor=none;align=center;verticalAlign=middle;whiteSpace=wrap;rounded=0;fontSize=14;" vertex="1" parent="WIyWlLk6GJQsqaUBKTNV-1">
          <mxGeometry x="20" y="30" width="120" height="20" as="geometry" />
        </mxCell>
        <mxCell id="BZ-8qStrqL4RJiPxQvul-36" value="6.2 选择" style="text;html=1;strokeColor=none;fillColor=none;align=center;verticalAlign=middle;whiteSpace=wrap;rounded=0;fontSize=14;" vertex="1" parent="WIyWlLk6GJQsqaUBKTNV-1">
          <mxGeometry x="20" y="200" width="120" height="20" as="geometry" />
        </mxCell>
        <mxCell id="BZ-8qStrqL4RJiPxQvul-37" style="edgeStyle=none;rounded=0;orthogonalLoop=1;jettySize=auto;html=1;exitX=1;exitY=0.5;exitDx=0;exitDy=0;entryX=-0.008;entryY=-0.012;entryDx=0;entryDy=0;entryPerimeter=0;endArrow=none;endFill=0;fontSize=14;" edge="1" parent="WIyWlLk6GJQsqaUBKTNV-1" source="BZ-8qStrqL4RJiPxQvul-38" target="BZ-8qStrqL4RJiPxQvul-40">
          <mxGeometry relative="1" as="geometry" />
        </mxCell>
        <mxCell id="BZ-8qStrqL4RJiPxQvul-38" value="制定" style="swimlane;fontStyle=0;childLayout=stackLayout;horizontal=1;startSize=26;fillColor=none;horizontalStack=0;resizeParent=1;resizeParentMax=0;resizeLast=0;collapsible=1;marginBottom=0;fontSize=14;" vertex="1" parent="WIyWlLk6GJQsqaUBKTNV-1">
          <mxGeometry x="230" y="390" width="140" height="52" as="geometry" />
        </mxCell>
        <mxCell id="BZ-8qStrqL4RJiPxQvul-39" value="营销计划" style="swimlane;fontStyle=0;childLayout=stackLayout;horizontal=1;startSize=26;fillColor=none;horizontalStack=0;resizeParent=1;resizeParentMax=0;resizeLast=0;collapsible=1;marginBottom=0;fontSize=14;" vertex="1" parent="WIyWlLk6GJQsqaUBKTNV-1">
          <mxGeometry x="420" y="390" width="140" height="104" as="geometry" />
        </mxCell>
        <mxCell id="BZ-8qStrqL4RJiPxQvul-40" value="营销计划编码" style="text;strokeColor=none;fillColor=none;align=left;verticalAlign=top;spacingLeft=4;spacingRight=4;overflow=hidden;rotatable=0;points=[[0,0.5],[1,0.5]];portConstraint=eastwest;fontStyle=4;fontSize=14;" vertex="1" parent="BZ-8qStrqL4RJiPxQvul-39">
          <mxGeometry y="26" width="140" height="26" as="geometry" />
        </mxCell>
        <mxCell id="BZ-8qStrqL4RJiPxQvul-41" value="促销产品" style="text;strokeColor=none;fillColor=none;align=left;verticalAlign=top;spacingLeft=4;spacingRight=4;overflow=hidden;rotatable=0;points=[[0,0.5],[1,0.5]];portConstraint=eastwest;fontSize=14;" vertex="1" parent="BZ-8qStrqL4RJiPxQvul-39">
          <mxGeometry y="52" width="140" height="26" as="geometry" />
        </mxCell>
        <mxCell id="BZ-8qStrqL4RJiPxQvul-48" value="促销价格" style="text;strokeColor=none;fillColor=none;align=left;verticalAlign=top;spacingLeft=4;spacingRight=4;overflow=hidden;rotatable=0;points=[[0,0.5],[1,0.5]];portConstraint=eastwest;fontSize=14;" vertex="1" parent="BZ-8qStrqL4RJiPxQvul-39">
          <mxGeometry y="78" width="140" height="26" as="geometry" />
        </mxCell>
        <mxCell id="BZ-8qStrqL4RJiPxQvul-42" style="edgeStyle=none;rounded=0;orthogonalLoop=1;jettySize=auto;html=1;exitX=1.014;exitY=0.002;exitDx=0;exitDy=0;entryX=0.008;entryY=-0.012;entryDx=0;entryDy=0;entryPerimeter=0;endArrow=none;endFill=0;exitPerimeter=0;fontSize=14;" edge="1" parent="WIyWlLk6GJQsqaUBKTNV-1" source="BZ-8qStrqL4RJiPxQvul-44">
          <mxGeometry relative="1" as="geometry">
            <mxPoint x="231.1199999999999" y="415.688" as="targetPoint" />
          </mxGeometry>
        </mxCell>
        <mxCell id="BZ-8qStrqL4RJiPxQvul-43" value="总经理" style="swimlane;fontStyle=0;childLayout=stackLayout;horizontal=1;startSize=26;fillColor=none;horizontalStack=0;resizeParent=1;resizeParentMax=0;resizeLast=0;collapsible=1;marginBottom=0;fontSize=14;" vertex="1" parent="WIyWlLk6GJQsqaUBKTNV-1">
          <mxGeometry x="40" y="390" width="140" height="78" as="geometry" />
        </mxCell>
        <mxCell id="BZ-8qStrqL4RJiPxQvul-44" value="员工编号" style="text;strokeColor=none;fillColor=none;align=left;verticalAlign=top;spacingLeft=4;spacingRight=4;overflow=hidden;rotatable=0;points=[[0,0.5],[1,0.5]];portConstraint=eastwest;fontStyle=4;fontSize=14;" vertex="1" parent="BZ-8qStrqL4RJiPxQvul-43">
          <mxGeometry y="26" width="140" height="26" as="geometry" />
        </mxCell>
        <mxCell id="BZ-8qStrqL4RJiPxQvul-63" value="工资" style="text;strokeColor=none;fillColor=none;align=left;verticalAlign=top;spacingLeft=4;spacingRight=4;overflow=hidden;rotatable=0;points=[[0,0.5],[1,0.5]];portConstraint=eastwest;fontStyle=0;fontSize=14;" vertex="1" parent="BZ-8qStrqL4RJiPxQvul-43">
          <mxGeometry y="52" width="140" height="26" as="geometry" />
        </mxCell>
        <mxCell id="BZ-8qStrqL4RJiPxQvul-45" value="6.3 制定" style="text;html=1;strokeColor=none;fillColor=none;align=center;verticalAlign=middle;whiteSpace=wrap;rounded=0;fontSize=14;" vertex="1" parent="WIyWlLk6GJQsqaUBKTNV-1">
          <mxGeometry x="40" y="360" width="100" height="20" as="geometry" />
        </mxCell>
        <mxCell id="BZ-8qStrqL4RJiPxQvul-50" value="6.4 查看" style="text;html=1;strokeColor=none;fillColor=none;align=center;verticalAlign=middle;whiteSpace=wrap;rounded=0;fontSize=14;" vertex="1" parent="WIyWlLk6GJQsqaUBKTNV-1">
          <mxGeometry x="40" y="520" width="100" height="20" as="geometry" />
        </mxCell>
        <mxCell id="BZ-8qStrqL4RJiPxQvul-51" style="edgeStyle=none;rounded=0;orthogonalLoop=1;jettySize=auto;html=1;exitX=1;exitY=0.5;exitDx=0;exitDy=0;entryX=-0.008;entryY=-0.012;entryDx=0;entryDy=0;entryPerimeter=0;endArrow=none;endFill=0;fontSize=14;" edge="1" source="BZ-8qStrqL4RJiPxQvul-52" target="BZ-8qStrqL4RJiPxQvul-54" parent="WIyWlLk6GJQsqaUBKTNV-1">
          <mxGeometry relative="1" as="geometry" />
        </mxCell>
        <mxCell id="BZ-8qStrqL4RJiPxQvul-52" value="查看" style="swimlane;fontStyle=0;childLayout=stackLayout;horizontal=1;startSize=26;fillColor=none;horizontalStack=0;resizeParent=1;resizeParentMax=0;resizeLast=0;collapsible=1;marginBottom=0;fontSize=14;" vertex="1" parent="WIyWlLk6GJQsqaUBKTNV-1">
          <mxGeometry x="230" y="550" width="140" height="52" as="geometry" />
        </mxCell>
        <mxCell id="BZ-8qStrqL4RJiPxQvul-53" value="库存分析" style="swimlane;fontStyle=0;childLayout=stackLayout;horizontal=1;startSize=26;fillColor=none;horizontalStack=0;resizeParent=1;resizeParentMax=0;resizeLast=0;collapsible=1;marginBottom=0;fontSize=14;" vertex="1" parent="WIyWlLk6GJQsqaUBKTNV-1">
          <mxGeometry x="420" y="550" width="140" height="130" as="geometry" />
        </mxCell>
        <mxCell id="BZ-8qStrqL4RJiPxQvul-54" value="时间" style="text;strokeColor=none;fillColor=none;align=left;verticalAlign=top;spacingLeft=4;spacingRight=4;overflow=hidden;rotatable=0;points=[[0,0.5],[1,0.5]];portConstraint=eastwest;fontStyle=4;fontSize=14;" vertex="1" parent="BZ-8qStrqL4RJiPxQvul-53">
          <mxGeometry y="26" width="140" height="26" as="geometry" />
        </mxCell>
        <mxCell id="BZ-8qStrqL4RJiPxQvul-55" value="商品列表" style="text;strokeColor=none;fillColor=none;align=left;verticalAlign=top;spacingLeft=4;spacingRight=4;overflow=hidden;rotatable=0;points=[[0,0.5],[1,0.5]];portConstraint=eastwest;fontSize=14;" vertex="1" parent="BZ-8qStrqL4RJiPxQvul-53">
          <mxGeometry y="52" width="140" height="26" as="geometry" />
        </mxCell>
        <mxCell id="BZ-8qStrqL4RJiPxQvul-56" value="商品数量列表" style="text;strokeColor=none;fillColor=none;align=left;verticalAlign=top;spacingLeft=4;spacingRight=4;overflow=hidden;rotatable=0;points=[[0,0.5],[1,0.5]];portConstraint=eastwest;fontSize=14;" vertex="1" parent="BZ-8qStrqL4RJiPxQvul-53">
          <mxGeometry y="78" width="140" height="26" as="geometry" />
        </mxCell>
        <mxCell id="BZ-8qStrqL4RJiPxQvul-65" value="促销情况" style="text;strokeColor=none;fillColor=none;align=left;verticalAlign=top;spacingLeft=4;spacingRight=4;overflow=hidden;rotatable=0;points=[[0,0.5],[1,0.5]];portConstraint=eastwest;fontSize=14;" vertex="1" parent="BZ-8qStrqL4RJiPxQvul-53">
          <mxGeometry y="104" width="140" height="26" as="geometry" />
        </mxCell>
        <mxCell id="BZ-8qStrqL4RJiPxQvul-57" style="edgeStyle=none;rounded=0;orthogonalLoop=1;jettySize=auto;html=1;entryX=0.008;entryY=-0.012;entryDx=0;entryDy=0;entryPerimeter=0;endArrow=none;endFill=0;fontSize=14;" edge="1" parent="WIyWlLk6GJQsqaUBKTNV-1">
          <mxGeometry relative="1" as="geometry">
            <mxPoint x="231.1199999999999" y="575.6880000000001" as="targetPoint" />
            <mxPoint x="182" y="576" as="sourcePoint" />
          </mxGeometry>
        </mxCell>
        <mxCell id="BZ-8qStrqL4RJiPxQvul-58" value="业务经理" style="swimlane;fontStyle=0;childLayout=stackLayout;horizontal=1;startSize=26;fillColor=none;horizontalStack=0;resizeParent=1;resizeParentMax=0;resizeLast=0;collapsible=1;marginBottom=0;fontSize=14;" vertex="1" parent="WIyWlLk6GJQsqaUBKTNV-1">
          <mxGeometry x="40" y="550" width="140" height="78" as="geometry" />
        </mxCell>
        <mxCell id="BZ-8qStrqL4RJiPxQvul-59" value="员工编号" style="text;strokeColor=none;fillColor=none;align=left;verticalAlign=top;spacingLeft=4;spacingRight=4;overflow=hidden;rotatable=0;points=[[0,0.5],[1,0.5]];portConstraint=eastwest;fontStyle=4;fontSize=14;" vertex="1" parent="BZ-8qStrqL4RJiPxQvul-58">
          <mxGeometry y="26" width="140" height="26" as="geometry" />
        </mxCell>
        <mxCell id="BZ-8qStrqL4RJiPxQvul-64" value="工资" style="text;strokeColor=none;fillColor=none;align=left;verticalAlign=top;spacingLeft=4;spacingRight=4;overflow=hidden;rotatable=0;points=[[0,0.5],[1,0.5]];portConstraint=eastwest;fontStyle=0;fontSize=14;" vertex="1" parent="BZ-8qStrqL4RJiPxQvul-58">
          <mxGeometry y="52" width="140" height="26" as="geometry" />
        </mxCell>
        <mxCell id="BZ-8qStrqL4RJiPxQvul-67" value="&amp;nbsp;" style="text;html=1;align=center;verticalAlign=middle;resizable=0;points=[];autosize=1;fontSize=14;" vertex="1" parent="WIyWlLk6GJQsqaUBKTNV-1">
          <mxGeometry x="640" y="150" width="20" height="20" as="geometry" />
        </mxCell>
        <mxCell id="BZ-8qStrqL4RJiPxQvul-68" value="&amp;nbsp;" style="text;html=1;align=center;verticalAlign=middle;resizable=0;points=[];autosize=1;fontSize=14;" vertex="1" parent="WIyWlLk6GJQsqaUBKTNV-1">
          <mxGeometry x="280" y="720" width="20" height="20" as="geometry" />
        </mxCell>
      </root>
    </mxGraphModel>
  </diagram>
</mxfile>
